# xmcd CD database file
#
# Track frame offsets:
#	150
#	12797
#	28270
#	62179
#	81704
#	100640
#	116190
#	138614
#	156985
#	172519
#	187590
#	211383
#	237230
#	256051
#
# Disc length: 3805 seconds
#
# Revision: 6
# Processed by: cddbd v1.5.2PL0 Copyright (c) Steve Scherf et al.
# Submitted via: CDex 1.50
#
DISCID=b70edb0e
DTITLE=Verschiedene - Lightning in a Bottle CD02
DYEAR=2004
DGENRE=Blues
TTITLE0=Okie Dokie Stomp - Clarence "Gatemouth" Brown
TTITLE1=Coming Home - Bonnie Raitt
TTITLE2=The Sky is Crying - Gregg Allman and Warren Haynes
TTITLE3=I'm a King Bee - Steven Tyler and Joe Perry
TTITLE4=First Time I Met the Blues - Buddy Guy
TTITLE5=Big Chief - The Neville Brothers
TTITLE6=I Pity the Fool - Shemekia Copeland and Robert Cray
TTITLE7=Killing Floor - David Johansen and Hubert Sumlin
TTITLE8=Turn on Your Love Light - Solomon Burke
TTITLE9=Down in the Valley - Solomon Burke
TTITLE10=Voodoo Child - Angelique Kidjo, Buddy Guy and Vernon Reid
TTITLE11=Minnesota Blues (aka "Black Jack Blues") - Mos Def
TTITLE12=(No) Boom Boom - Chuck D. and The Fine Arts Militia
TTITLE13=Sweet Sixteen - B.B. King
EXTD=Type: Blues\nMartin Scorse Presents\nA Film By Antoine Fuqua YEAR: 2004
EXTT0=
EXTT1=
EXTT2=
EXTT3=
EXTT4=
EXTT5=
EXTT6=
EXTT7=
EXTT8=
EXTT9=
EXTT10=
EXTT11=
EXTT12=
EXTT13=
PLAYORDER=
